<?xml version="1.0" encoding="UTF-8" standalone="no"?><svg xmlns="http://www.w3.org/2000/svg" xmlns:xlink="http://www.w3.org/1999/xlink" style="isolation:isolate" viewBox="54 190.5 392 119" width="392pt" height="119pt"><path d=" M 351.672 224.476 L 327.984 287.116 L 319.128 287.116 L 342.816 224.476 L 351.672 224.476 L 351.672 224.476 Z  M 391.848 248.02 L 391.848 255.364 L 364.056 273.364 L 364.056 263.788 L 383.136 251.836 L 383.136 251.548 L 364.056 239.596 L 364.056 230.02 L 391.848 248.02 L 391.848 248.02 Z  M 146.256 257.956 L 146.256 257.956 L 146.256 257.956 Q 146.256 253.564 147.876 250.108 L 147.876 250.108 L 147.876 250.108 Q 149.496 246.652 152.232 244.276 L 152.232 244.276 L 152.232 244.276 Q 154.968 241.9 158.64 240.64 L 158.64 240.64 L 158.64 240.64 Q 162.312 239.38 166.344 239.38 L 166.344 239.38 L 166.344 239.38 Q 170.664 239.38 173.94 240.82 L 173.94 240.82 L 173.94 240.82 Q 177.216 242.26 179.448 244.348 L 179.448 244.348 L 175.488 249.532 L 175.488 249.532 Q 173.4 247.876 171.276 247.012 L 171.276 247.012 L 171.276 247.012 Q 169.152 246.148 166.776 246.148 L 166.776 246.148 L 166.776 246.148 Q 161.448 246.148 158.136 249.352 L 158.136 249.352 L 158.136 249.352 Q 154.824 252.556 154.824 257.956 L 154.824 257.956 L 154.824 257.956 Q 154.824 260.62 155.688 262.78 L 155.688 262.78 L 155.688 262.78 Q 156.552 264.94 158.1 266.488 L 158.1 266.488 L 158.1 266.488 Q 159.648 268.036 161.808 268.864 L 161.808 268.864 L 161.808 268.864 Q 163.968 269.692 166.56 269.692 L 166.56 269.692 L 166.56 269.692 Q 169.584 269.692 172.068 268.54 L 172.068 268.54 L 172.068 268.54 Q 174.552 267.388 176.64 265.804 L 176.64 265.804 L 180.096 271.132 L 180.096 271.132 Q 177.072 273.796 173.328 275.128 L 173.328 275.128 L 173.328 275.128 Q 169.584 276.46 165.768 276.46 L 165.768 276.46 L 165.768 276.46 Q 161.592 276.46 158.028 275.236 L 158.028 275.236 L 158.028 275.236 Q 154.464 274.012 151.836 271.636 L 151.836 271.636 L 151.836 271.636 Q 149.208 269.26 147.732 265.804 L 147.732 265.804 L 147.732 265.804 Q 146.256 262.348 146.256 257.956 Z  M 188.016 257.956 L 188.016 257.956 L 188.016 257.956 Q 188.016 253.564 189.492 250.108 L 189.492 250.108 L 189.492 250.108 Q 190.968 246.652 193.416 244.276 L 193.416 244.276 L 193.416 244.276 Q 195.864 241.9 199.104 240.64 L 199.104 240.64 L 199.104 240.64 Q 202.344 239.38 205.8 239.38 L 205.8 239.38 L 205.8 239.38 Q 209.256 239.38 212.496 240.64 L 212.496 240.64 L 212.496 240.64 Q 215.736 241.9 218.184 244.276 L 218.184 244.276 L 218.184 244.276 Q 220.632 246.652 222.108 250.108 L 222.108 250.108 L 222.108 250.108 Q 223.584 253.564 223.584 257.956 L 223.584 257.956 L 223.584 257.956 Q 223.584 262.348 222.108 265.804 L 222.108 265.804 L 222.108 265.804 Q 220.632 269.26 218.184 271.636 L 218.184 271.636 L 218.184 271.636 Q 215.736 274.012 212.496 275.236 L 212.496 275.236 L 212.496 275.236 Q 209.256 276.46 205.8 276.46 L 205.8 276.46 L 205.8 276.46 Q 202.344 276.46 199.104 275.236 L 199.104 275.236 L 199.104 275.236 Q 195.864 274.012 193.416 271.636 L 193.416 271.636 L 193.416 271.636 Q 190.968 269.26 189.492 265.804 L 189.492 265.804 L 189.492 265.804 Q 188.016 262.348 188.016 257.956 Z  M 196.584 257.956 L 196.584 257.956 L 196.584 257.956 Q 196.584 263.284 199.032 266.488 L 199.032 266.488 L 199.032 266.488 Q 201.48 269.692 205.8 269.692 L 205.8 269.692 L 205.8 269.692 Q 210.12 269.692 212.568 266.488 L 212.568 266.488 L 212.568 266.488 Q 215.016 263.284 215.016 257.956 L 215.016 257.956 L 215.016 257.956 Q 215.016 252.556 212.568 249.352 L 212.568 249.352 L 212.568 249.352 Q 210.12 246.148 205.8 246.148 L 205.8 246.148 L 205.8 246.148 Q 201.48 246.148 199.032 249.352 L 199.032 249.352 L 199.032 249.352 Q 196.584 252.556 196.584 257.956 Z  M 231.216 257.956 L 231.216 257.956 L 231.216 257.956 Q 231.216 253.636 232.512 250.18 L 232.512 250.18 L 232.512 250.18 Q 233.808 246.724 236.004 244.348 L 236.004 244.348 L 236.004 244.348 Q 238.2 241.972 241.008 240.676 L 241.008 240.676 L 241.008 240.676 Q 243.816 239.38 246.84 239.38 L 246.84 239.38 L 246.84 239.38 Q 250.008 239.38 252.276 240.496 L 252.276 240.496 L 252.276 240.496 Q 254.544 241.612 256.704 243.556 L 256.704 243.556 L 256.344 237.58 L 256.344 224.764 L 264.696 224.764 L 264.696 275.596 L 257.856 275.596 L 257.208 271.492 L 256.992 271.492 L 256.992 271.492 Q 254.904 273.58 252.132 275.02 L 252.132 275.02 L 252.132 275.02 Q 249.36 276.46 246.336 276.46 L 246.336 276.46 L 246.336 276.46 Q 242.952 276.46 240.144 275.2 L 240.144 275.2 L 240.144 275.2 Q 237.336 273.94 235.356 271.564 L 235.356 271.564 L 235.356 271.564 Q 233.376 269.188 232.296 265.768 L 232.296 265.768 L 232.296 265.768 Q 231.216 262.348 231.216 257.956 Z  M 239.784 257.884 L 239.784 257.884 L 239.784 257.884 Q 239.784 263.644 242.016 266.632 L 242.016 266.632 L 242.016 266.632 Q 244.248 269.62 248.352 269.62 L 248.352 269.62 L 248.352 269.62 Q 252.744 269.62 256.344 265.372 L 256.344 265.372 L 256.344 249.46 L 256.344 249.46 Q 254.472 247.66 252.6 246.94 L 252.6 246.94 L 252.6 246.94 Q 250.728 246.22 248.784 246.22 L 248.784 246.22 L 248.784 246.22 Q 246.912 246.22 245.292 247.012 L 245.292 247.012 L 245.292 247.012 Q 243.672 247.804 242.448 249.28 L 242.448 249.28 L 242.448 249.28 Q 241.224 250.756 240.504 252.916 L 240.504 252.916 L 240.504 252.916 Q 239.784 255.076 239.784 257.884 Z  M 279.96 275.596 L 279.96 240.244 L 286.8 240.244 L 287.52 248.236 L 287.736 248.236 L 287.736 248.236 Q 290.472 243.916 294.324 241.648 L 294.324 241.648 L 294.324 241.648 Q 298.176 239.38 302.784 239.38 L 302.784 239.38 L 302.784 239.38 Q 304.944 239.38 306.492 239.704 L 306.492 239.704 L 306.492 239.704 Q 308.04 240.028 309.624 240.82 L 309.624 240.82 L 307.896 247.804 L 307.896 247.804 Q 306.168 247.228 304.836 246.976 L 304.836 246.976 L 304.836 246.976 Q 303.504 246.724 301.488 246.724 L 301.488 246.724 L 301.488 246.724 Q 297.816 246.724 294.432 248.812 L 294.432 248.812 L 294.432 248.812 Q 291.048 250.9 288.312 256.084 L 288.312 256.084 L 288.312 275.596 L 279.96 275.596 L 279.96 275.596 Z  M 106.152 255.364 L 106.152 248.02 L 133.944 230.02 L 133.944 239.596 L 114.864 251.548 L 114.864 251.836 L 133.944 263.788 L 133.944 273.364 L 106.152 255.364 L 106.152 255.364 Z " fill="#ff4081"/></svg>